<mxfile host="65bd71144e">
    <diagram id="O9MOO5vr81y1uxXif_JS" name="HLD">
        <mxGraphModel dx="1033" dy="635" grid="1" gridSize="10" guides="1" tooltips="1" connect="1" arrows="1" fold="1" page="1" pageScale="1" pageWidth="1169" pageHeight="827" background="none" math="0" shadow="0">
            <root>
                <mxCell id="0"/>
                <mxCell id="1" parent="0"/>
                <mxCell id="2" value="" style="rounded=1;whiteSpace=wrap;html=1;fillColor=none;fontColor=#ffffff;strokeColor=#6F0000;strokeWidth=5;" vertex="1" parent="1">
                    <mxGeometry x="759" y="304" width="120" height="250" as="geometry"/>
                </mxCell>
                <mxCell id="3" value="PostgreSQL" style="rounded=1;whiteSpace=wrap;html=1;fillColor=#0050ef;fontColor=#ffffff;strokeColor=#001DBC;" vertex="1" parent="1">
                    <mxGeometry x="166" y="399" width="120" height="60" as="geometry"/>
                </mxCell>
                <mxCell id="7" value="API" style="text;html=1;align=center;verticalAlign=middle;resizable=0;points=[];autosize=1;strokeColor=#3700CC;fillColor=#6a00ff;rotation=0;fontColor=#ffffff;" vertex="1" parent="1">
                    <mxGeometry x="694" y="390" width="40" height="30" as="geometry"/>
                </mxCell>
                <mxCell id="9" style="edgeStyle=none;html=1;exitX=1;exitY=0.5;exitDx=0;exitDy=0;entryX=0;entryY=0.5;entryDx=0;entryDy=0;startArrow=classic;startFill=1;" edge="1" parent="1" source="8" target="2">
                    <mxGeometry relative="1" as="geometry"/>
                </mxCell>
                <mxCell id="10" style="edgeStyle=none;html=1;exitX=0;exitY=0.5;exitDx=0;exitDy=0;entryX=1;entryY=0.5;entryDx=0;entryDy=0;startArrow=classic;startFill=1;" edge="1" parent="1" source="8" target="3">
                    <mxGeometry relative="1" as="geometry"/>
                </mxCell>
                <mxCell id="8" value="" style="rounded=1;whiteSpace=wrap;html=1;fillColor=none;fontColor=#ffffff;strokeColor=#2D7600;strokeWidth=5;" vertex="1" parent="1">
                    <mxGeometry x="381" y="314" width="290" height="230" as="geometry"/>
                </mxCell>
                <mxCell id="11" value="SQL" style="text;html=1;align=center;verticalAlign=middle;resizable=0;points=[];autosize=1;strokeColor=#006EAF;fillColor=#1ba1e2;rotation=0;fontColor=#ffffff;" vertex="1" parent="1">
                    <mxGeometry x="311" y="390" width="50" height="30" as="geometry"/>
                </mxCell>
                <mxCell id="12" value="Mailing" style="rounded=1;whiteSpace=wrap;html=1;fillColor=#d80073;fontColor=#ffffff;strokeColor=#A50040;" vertex="1" parent="1">
                    <mxGeometry x="396" y="466" width="80" height="60" as="geometry"/>
                </mxCell>
                <mxCell id="13" value="Payments" style="rounded=1;whiteSpace=wrap;html=1;fillColor=#1ba1e2;fontColor=#ffffff;strokeColor=#006EAF;" vertex="1" parent="1">
                    <mxGeometry x="486" y="326" width="80" height="60" as="geometry"/>
                </mxCell>
                <mxCell id="16" value="Invoices" style="rounded=1;whiteSpace=wrap;html=1;fillColor=#a20025;fontColor=#ffffff;strokeColor=#6F0000;" vertex="1" parent="1">
                    <mxGeometry x="578" y="326" width="80" height="60" as="geometry"/>
                </mxCell>
                <mxCell id="18" value="Monitoring" style="rounded=1;whiteSpace=wrap;html=1;fillColor=#647687;fontColor=#ffffff;strokeColor=#314354;" vertex="1" parent="1">
                    <mxGeometry x="486" y="466" width="80" height="60" as="geometry"/>
                </mxCell>
                <mxCell id="20" value="Customer UI" style="rounded=1;whiteSpace=wrap;html=1;" vertex="1" parent="1">
                    <mxGeometry x="890" y="339" width="80" height="60" as="geometry"/>
                </mxCell>
                <mxCell id="22" value="Admin UI" style="rounded=1;whiteSpace=wrap;html=1;" vertex="1" parent="1">
                    <mxGeometry x="890" y="459" width="80" height="60" as="geometry"/>
                </mxCell>
                <mxCell id="31" value="Reservations" style="rounded=1;whiteSpace=wrap;html=1;fillColor=#60a917;fontColor=#ffffff;strokeColor=#2D7600;" vertex="1" parent="1">
                    <mxGeometry x="396" y="326" width="80" height="60" as="geometry"/>
                </mxCell>
                <mxCell id="34" value="&lt;b&gt;&lt;font style=&quot;font-size: 13px;&quot;&gt;Backend&lt;/font&gt;&lt;/b&gt;" style="text;html=1;align=center;verticalAlign=middle;resizable=0;points=[];autosize=1;fontColor=#FFFFFF;" vertex="1" parent="1">
                    <mxGeometry x="486" y="284" width="80" height="30" as="geometry"/>
                </mxCell>
                <mxCell id="35" value="&lt;b&gt;&lt;font style=&quot;font-size: 13px;&quot;&gt;Frontend&lt;/font&gt;&lt;/b&gt;" style="text;html=1;align=center;verticalAlign=middle;resizable=0;points=[];autosize=1;strokeColor=none;fillColor=none;fontColor=#FFFFFF;" vertex="1" parent="1">
                    <mxGeometry x="779" y="274" width="80" height="30" as="geometry"/>
                </mxCell>
                <mxCell id="36" value="Assets" style="rounded=1;whiteSpace=wrap;html=1;fillColor=#1ba1e2;fontColor=#ffffff;strokeColor=#006EAF;" vertex="1" parent="1">
                    <mxGeometry x="779" y="478" width="80" height="60" as="geometry"/>
                </mxCell>
                <mxCell id="37" value="nginx" style="rounded=1;whiteSpace=wrap;html=1;fillColor=#008a00;fontColor=#ffffff;strokeColor=#005700;" vertex="1" parent="1">
                    <mxGeometry x="779" y="320" width="80" height="60" as="geometry"/>
                </mxCell>
                <mxCell id="39" value="Administration" style="rounded=1;whiteSpace=wrap;html=1;fillColor=#6a00ff;fontColor=#ffffff;strokeColor=#3700CC;" vertex="1" parent="1">
                    <mxGeometry x="578" y="466" width="80" height="60" as="geometry"/>
                </mxCell>
                <mxCell id="40" value="RoomView" style="rounded=1;whiteSpace=wrap;html=1;fillColor=#d80073;fontColor=#ffffff;strokeColor=#A50040;" vertex="1" parent="1">
                    <mxGeometry x="779" y="399" width="80" height="60" as="geometry"/>
                </mxCell>
            </root>
        </mxGraphModel>
    </diagram>
</mxfile>